<?xml version="1.0" standalone="no"?>
<!DOCTYPE svg PUBLIC "-//W3C//DTD SVG 20010904//EN"
 "http://www.w3.org/TR/2001/REC-SVG-20010904/DTD/svg10.dtd">
<svg version="1.0" xmlns="http://www.w3.org/2000/svg"
 width="125.000000pt" height="125.000000pt" viewBox="0 0 125.000000 125.000000"
 preserveAspectRatio="xMidYMid meet">

<g transform="translate(0.000000,125.000000) scale(0.100000,-0.100000)"
fill="#000000" stroke="none">
<path d="M565 813 c-81 -34 -195 -110 -195 -131 -1 -15 -2 -16 -13 -1 -19 24
-63 32 -81 13 -21 -21 -20 -30 6 -48 12 -9 19 -19 15 -22 -4 -4 -14 -1 -23 6
-13 12 -17 11 -24 -1 -7 -11 -3 -15 18 -19 24 -5 27 -9 24 -38 -8 -72 53 -113
165 -111 67 1 67 2 22 9 -86 15 -129 49 -129 104 0 14 -4 27 -10 31 -10 6 -2
35 10 35 5 0 6 -9 3 -20 -4 -16 -2 -19 13 -13 11 3 23 12 27 20 4 7 16 13 26
13 10 0 24 12 31 26 12 22 12 27 0 35 -19 11 19 43 107 91 64 34 90 33 58 -2
-18 -19 -17 -20 1 -20 11 0 25 -5 32 -12 9 -9 12 -8 12 8 0 11 5 25 12 32 9 9
7 12 -11 12 -16 0 -21 4 -17 15 7 20 -8 18 -79 -12z m-237 -135 c19 -19 14
-29 -8 -16 -20 13 -27 28 -12 28 4 0 13 -5 20 -12z m96 -3 c-4 -8 -10 -15 -15
-15 -4 0 -6 7 -3 15 4 8 10 15 15 15 4 0 6 -7 3 -15z"/>
<path d="M796 774 c41 -10 70 -25 88 -43 26 -27 27 -31 15 -70 -16 -53 -33
-54 -24 -1 7 43 12 40 -56 43 -18 1 -25 -8 -35 -43 -17 -57 -18 -56 5 -56 13
0 22 10 27 26 l7 25 7 -25 c5 -18 12 -24 29 -23 18 3 20 0 11 -16 -17 -32
-101 -99 -171 -136 -70 -37 -89 -36 -64 2 15 22 14 23 -9 23 -13 0 -27 6 -29
13 -3 6 -6 3 -6 -8 -1 -12 -6 -26 -13 -33 -9 -9 -7 -12 9 -12 29 0 38 -16 16
-30 -15 -9 -14 -10 7 -4 101 27 254 113 296 166 11 14 30 29 43 33 17 5 21 12
17 28 -3 13 2 29 12 41 13 15 14 20 4 24 -7 2 -17 15 -22 28 -14 36 -66 57
-150 60 l-75 3 61 -15z m41 -106 c-3 -8 -6 -5 -6 6 -1 11 2 17 5 13 3 -3 4
-12 1 -19z m133 12 c0 -5 -7 -10 -16 -10 -8 0 -12 5 -9 10 3 6 10 10 16 10 5
0 9 -4 9 -10z m-18 -45 c0 -5 -5 -11 -11 -13 -6 -2 -11 4 -11 13 0 9 5 15 11
13 6 -2 11 -8 11 -13z"/>
<path d="M593 694 c-22 -17 -73 -18 -73 -2 0 6 -9 2 -20 -10 -12 -12 -26 -22
-33 -22 -8 0 -8 -3 2 -9 10 -7 11 -13 1 -31 -12 -22 -12 -22 11 -6 13 9 31 16
41 16 11 0 15 5 12 14 -3 7 2 16 10 19 19 7 19 6 6 -27 -9 -24 -7 -26 15 -26
19 0 25 5 25 21 0 11 4 18 10 14 5 -3 7 -12 4 -19 -6 -15 18 -28 32 -18 5 4
10 26 12 48 2 34 -1 43 -17 47 -11 3 -28 -1 -38 -9z m22 -13 c3 -5 1 -12 -5
-16 -5 -3 -10 1 -10 9 0 18 6 21 15 7z"/>
<path d="M682 702 c-7 -2 -12 -11 -12 -19 0 -13 3 -13 15 -3 12 10 15 10 15
-3 0 -9 -4 -27 -10 -41 -9 -23 -7 -26 14 -26 20 0 24 7 30 41 5 33 9 39 20 30
11 -9 16 -9 21 -1 4 6 4 14 1 18 -7 7 -76 10 -94 4z"/>
<path d="M1016 702 c-11 -19 -33 -92 -28 -96 9 -10 22 5 22 25 0 25 17 24 25
-2 11 -34 38 -18 52 30 15 53 10 64 -10 25 -14 -26 -15 -27 -21 -7 -7 22 -32
37 -40 25z"/>
<path d="M1120 702 c-5 -2 -10 -11 -10 -19 0 -13 3 -13 15 -3 17 14 19 7 6
-38 -8 -28 -7 -32 9 -32 14 0 22 11 30 41 9 32 14 38 25 29 10 -8 15 -8 20 0
4 6 4 14 1 18 -7 7 -79 9 -96 4z"/>
</g>
</svg>
